<svg width="374" height="375" viewBox="0 0 374 375" fill="none" xmlns="http://www.w3.org/2000/svg">
<g clip-path="url(#clip0_186_540)">
<path d="M304.518 341.44C304.518 359.299 291.142 373.762 274.621 373.762H84.0275C67.5248 373.762 54.1426 359.293 54.1426 341.44V49.9951C54.1426 32.119 67.5306 17.6558 84.0275 17.6558H274.621C291.142 17.6558 304.518 32.119 304.518 49.9951V341.44Z" fill="#F4AE7F"/>
<path d="M180.566 62.0448C180.566 65.44 173.799 68.1866 165.489 68.1866H69.237C60.9038 68.1866 54.1484 65.44 54.1484 62.0448V6.76291C54.1484 3.37938 60.898 0.632812 69.237 0.632812H165.489C173.799 0.632812 180.566 3.37938 180.566 6.76291V62.0448Z" fill="#F4AE7F"/>
<path d="M319.431 327.883C319.431 343.036 305.92 355.29 289.236 355.29H96.6321C79.9716 355.29 66.4375 343.03 66.4375 327.883V80.8674C66.4375 65.7262 79.9716 53.4602 96.6321 53.4602H289.236C305.92 53.4602 319.431 65.7321 319.431 80.8674V327.883Z" fill="#D0D2D3"/>
<path d="M319.431 308.563C319.431 323.716 305.92 335.971 289.236 335.971H96.6321C79.9716 335.971 66.4375 323.71 66.4375 308.563V61.5481C66.4375 46.4069 79.9716 34.1526 96.6321 34.1526H289.236C305.92 34.1526 319.431 46.4128 319.431 61.5481V308.563Z" fill="white"/>
<path d="M251.865 49.019C251.865 50.8422 242.878 52.3265 231.821 52.3265H103.843C92.7636 52.3265 83.7759 50.8422 83.7759 49.019V19.2451C83.7759 17.4043 92.7636 15.9375 103.843 15.9375H231.821C242.878 15.9375 251.865 17.4043 251.865 19.2451V49.019Z" fill="#D0D2D3"/>
<path d="M117.284 105.996H284.193C295.425 105.996 295.425 90.2175 284.193 90.2175H117.284C106.093 90.2175 106.093 105.996 117.284 105.996ZM117.284 138.049H284.193C295.425 138.049 295.425 122.282 284.193 122.282H117.284C106.093 122.282 106.093 138.049 117.284 138.049ZM117.284 170.803H284.193C295.425 170.803 295.425 155.025 284.193 155.025H117.284C106.093 155.025 106.093 170.803 117.284 170.803ZM117.284 202.827H284.193C295.425 202.827 295.425 187.06 284.193 187.06H117.284C106.093 187.06 106.093 202.827 117.284 202.827ZM117.284 264.653H194.118C205.314 264.653 205.314 248.881 194.118 248.881H117.284C106.093 248.875 106.093 264.653 117.284 264.653Z" fill="#35494D"/>
</g>
<defs>
<clipPath id="clip0_186_540">
<rect width="374" height="374" fill="white" transform="translate(0 0.632812)"/>
</clipPath>
</defs>
</svg>
